%TF.GenerationSoftware,KiCad,Pcbnew,(6.0.1)*%
%TF.CreationDate,2023-04-26T14:09:52-06:00*%
%TF.ProjectId,Device_Design,44657669-6365-45f4-9465-7369676e2e6b,02*%
%TF.SameCoordinates,Original*%
%TF.FileFunction,Soldermask,Top*%
%TF.FilePolarity,Negative*%
%FSLAX46Y46*%
G04 Gerber Fmt 4.6, Leading zero omitted, Abs format (unit mm)*
G04 Created by KiCad (PCBNEW (6.0.1)) date 2023-04-26 14:09:52*
%MOMM*%
%LPD*%
G01*
G04 APERTURE LIST*
G04 Aperture macros list*
%AMRoundRect*
0 Rectangle with rounded corners*
0 $1 Rounding radius*
0 $2 $3 $4 $5 $6 $7 $8 $9 X,Y pos of 4 corners*
0 Add a 4 corners polygon primitive as box body*
4,1,4,$2,$3,$4,$5,$6,$7,$8,$9,$2,$3,0*
0 Add four circle primitives for the rounded corners*
1,1,$1+$1,$2,$3*
1,1,$1+$1,$4,$5*
1,1,$1+$1,$6,$7*
1,1,$1+$1,$8,$9*
0 Add four rect primitives between the rounded corners*
20,1,$1+$1,$2,$3,$4,$5,0*
20,1,$1+$1,$4,$5,$6,$7,0*
20,1,$1+$1,$6,$7,$8,$9,0*
20,1,$1+$1,$8,$9,$2,$3,0*%
%AMFreePoly0*
4,1,9,3.862500,-0.866500,0.737500,-0.866500,0.737500,-0.450000,-0.737500,-0.450000,-0.737500,0.450000,0.737500,0.450000,0.737500,0.866500,3.862500,0.866500,3.862500,-0.866500,3.862500,-0.866500,$1*%
G04 Aperture macros list end*
%ADD10C,1.507998*%
%ADD11RoundRect,0.250000X-0.625000X0.400000X-0.625000X-0.400000X0.625000X-0.400000X0.625000X0.400000X0*%
%ADD12R,0.900000X1.300000*%
%ADD13FreePoly0,270.000000*%
%ADD14RoundRect,0.250001X0.462499X0.624999X-0.462499X0.624999X-0.462499X-0.624999X0.462499X-0.624999X0*%
%ADD15R,1.550000X1.300000*%
%ADD16R,1.700000X1.700000*%
%ADD17O,1.700000X1.700000*%
%ADD18RoundRect,0.250000X-0.400000X-0.625000X0.400000X-0.625000X0.400000X0.625000X-0.400000X0.625000X0*%
%ADD19RoundRect,0.250000X0.625000X-0.400000X0.625000X0.400000X-0.625000X0.400000X-0.625000X-0.400000X0*%
%ADD20C,1.724000*%
%ADD21RoundRect,0.250000X-0.412500X-0.650000X0.412500X-0.650000X0.412500X0.650000X-0.412500X0.650000X0*%
%ADD22RoundRect,0.250000X0.412500X0.650000X-0.412500X0.650000X-0.412500X-0.650000X0.412500X-0.650000X0*%
%ADD23RoundRect,0.250000X0.400000X0.625000X-0.400000X0.625000X-0.400000X-0.625000X0.400000X-0.625000X0*%
%ADD24R,3.000000X3.000000*%
%ADD25C,3.000000*%
%ADD26C,3.200000*%
%ADD27R,1.600000X1.600000*%
%ADD28O,1.600000X1.600000*%
%ADD29R,7.875000X2.000000*%
G04 APERTURE END LIST*
D10*
%TO.C,SW27*%
X156269996Y-152096006D03*
X149769994Y-152096006D03*
X149769994Y-156596007D03*
X156269996Y-156596007D03*
%TD*%
%TO.C,SW26*%
X156299998Y-136314005D03*
X149799996Y-136314005D03*
X149799996Y-140814006D03*
X156299998Y-140814006D03*
%TD*%
%TO.C,SW25*%
X156330000Y-120532004D03*
X149829998Y-120532004D03*
X149829998Y-125032005D03*
X156330000Y-125032005D03*
%TD*%
%TO.C,SW24*%
X156299998Y-104750003D03*
X149799996Y-104750003D03*
X149799996Y-109250004D03*
X156299998Y-109250004D03*
%TD*%
%TO.C,SW23*%
X156330000Y-88934001D03*
X149829998Y-88934001D03*
X149829998Y-93434002D03*
X156330000Y-93434002D03*
%TD*%
%TO.C,SW22*%
X140521996Y-152096006D03*
X134021994Y-152096006D03*
X134021994Y-156596007D03*
X140521996Y-156596007D03*
%TD*%
%TO.C,SW21*%
X140551998Y-136314005D03*
X134051996Y-136314005D03*
X134051996Y-140814006D03*
X140551998Y-140814006D03*
%TD*%
%TO.C,SW20*%
X140582000Y-120566005D03*
X134081998Y-120566005D03*
X134081998Y-125066006D03*
X140582000Y-125066006D03*
%TD*%
%TO.C,SW19*%
X140582000Y-104716002D03*
X134081998Y-104716002D03*
X134081998Y-109216003D03*
X140582000Y-109216003D03*
%TD*%
%TO.C,SW18*%
X140551998Y-88968002D03*
X134051996Y-88968002D03*
X134051996Y-93468003D03*
X140551998Y-93468003D03*
%TD*%
%TO.C,SW17*%
X124773996Y-152096006D03*
X118273994Y-152096006D03*
X118273994Y-156596007D03*
X124773996Y-156596007D03*
%TD*%
%TO.C,SW16*%
X124773996Y-136348006D03*
X118273994Y-136348006D03*
X118273994Y-140848007D03*
X124773996Y-140848007D03*
%TD*%
%TO.C,SW15*%
X124773996Y-120600006D03*
X118273994Y-120600006D03*
X118273994Y-125100007D03*
X124773996Y-125100007D03*
%TD*%
%TO.C,SW14*%
X124803998Y-104750003D03*
X118303996Y-104750003D03*
X118303996Y-109250004D03*
X124803998Y-109250004D03*
%TD*%
%TO.C,SW13*%
X124803998Y-89036004D03*
X118303996Y-89036004D03*
X118303996Y-93536005D03*
X124803998Y-93536005D03*
%TD*%
%TO.C,SW12*%
X108995994Y-152130007D03*
X102495992Y-152130007D03*
X102495992Y-156630008D03*
X108995994Y-156630008D03*
%TD*%
%TO.C,SW11*%
X108995994Y-136382007D03*
X102495992Y-136382007D03*
X102495992Y-140882008D03*
X108995994Y-140882008D03*
%TD*%
%TO.C,SW10*%
X109025996Y-120634007D03*
X102525994Y-120634007D03*
X102525994Y-125134008D03*
X109025996Y-125134008D03*
%TD*%
%TO.C,SW9*%
X108995994Y-104818005D03*
X102495992Y-104818005D03*
X102495992Y-109318006D03*
X108995994Y-109318006D03*
%TD*%
%TO.C,SW8*%
X109025996Y-89036004D03*
X102525994Y-89036004D03*
X102525994Y-93536005D03*
X109025996Y-93536005D03*
%TD*%
%TO.C,SW7*%
X93247994Y-152130007D03*
X86747992Y-152130007D03*
X86747992Y-156630008D03*
X93247994Y-156630008D03*
%TD*%
%TO.C,SW6*%
X93247994Y-136382007D03*
X86747992Y-136382007D03*
X86747992Y-140882008D03*
X93247994Y-140882008D03*
%TD*%
%TO.C,SW5*%
X93277996Y-120600006D03*
X86777994Y-120600006D03*
X86777994Y-125100007D03*
X93277996Y-125100007D03*
%TD*%
%TO.C,SW4*%
X93247994Y-104818005D03*
X86747992Y-104818005D03*
X86747992Y-109318006D03*
X93247994Y-109318006D03*
%TD*%
%TO.C,SW3*%
X93247994Y-89070005D03*
X86747992Y-89070005D03*
X86747992Y-93570006D03*
X93247994Y-93570006D03*
%TD*%
D11*
%TO.C,R11*%
X147400000Y-94750000D03*
X147400000Y-97850000D03*
%TD*%
%TO.C,R10*%
X131500000Y-98050000D03*
X131500000Y-94950000D03*
%TD*%
%TO.C,R9*%
X115800000Y-95150000D03*
X115800000Y-98250000D03*
%TD*%
%TO.C,R8*%
X99400000Y-94850000D03*
X99400000Y-97950000D03*
%TD*%
%TO.C,R7*%
X88000000Y-97450000D03*
X88000000Y-100550000D03*
%TD*%
D12*
%TO.C,U2*%
X151300000Y-82650000D03*
D13*
X149800000Y-82737500D03*
D12*
X148300000Y-82650000D03*
%TD*%
D14*
%TO.C,D1*%
X148987500Y-77800000D03*
X146012500Y-77800000D03*
%TD*%
D15*
%TO.C,SW2*%
X98468000Y-75910000D03*
X90508000Y-75910000D03*
X90508000Y-71410000D03*
X98468000Y-71410000D03*
%TD*%
D16*
%TO.C,J5*%
X103139000Y-77216000D03*
D17*
X105679000Y-77216000D03*
X108219000Y-77216000D03*
%TD*%
D18*
%TO.C,R2*%
X83850000Y-85000000D03*
X86950000Y-85000000D03*
%TD*%
D19*
%TO.C,R6*%
X101500000Y-83650000D03*
X101500000Y-80550000D03*
%TD*%
D20*
%TO.C,SW1*%
X147803000Y-69596000D03*
X147803000Y-64516000D03*
%TD*%
D21*
%TO.C,C6*%
X117065500Y-62484000D03*
X120190500Y-62484000D03*
%TD*%
D22*
%TO.C,C5*%
X143962500Y-85300000D03*
X140837500Y-85300000D03*
%TD*%
D16*
%TO.C,J4*%
X139441000Y-65024000D03*
D17*
X141981000Y-65024000D03*
%TD*%
D23*
%TO.C,R4*%
X96350000Y-85000000D03*
X93250000Y-85000000D03*
%TD*%
D16*
%TO.C,J3*%
X139441000Y-71125000D03*
D17*
X141981000Y-71125000D03*
X139441000Y-73665000D03*
X141981000Y-73665000D03*
X139441000Y-76205000D03*
X141981000Y-76205000D03*
X139441000Y-78745000D03*
X141981000Y-78745000D03*
X139441000Y-81285000D03*
X141981000Y-81285000D03*
%TD*%
D22*
%TO.C,C3*%
X129262500Y-84400000D03*
X126137500Y-84400000D03*
%TD*%
D24*
%TO.C,J2*%
X155448000Y-71628000D03*
D25*
X155448000Y-76708000D03*
%TD*%
D11*
%TO.C,R3*%
X85900000Y-72650000D03*
X85900000Y-75750000D03*
%TD*%
D19*
%TO.C,R5*%
X106800000Y-83850000D03*
X106800000Y-80750000D03*
%TD*%
D26*
%TO.C,REF\u002A\u002A*%
X156464000Y-146812000D03*
%TD*%
D22*
%TO.C,C2*%
X114769500Y-84328000D03*
X117894500Y-84328000D03*
%TD*%
D23*
%TO.C,R1*%
X148870000Y-73152000D03*
X145770000Y-73152000D03*
%TD*%
D26*
%TO.C,REF\u002A\u002A*%
X155448000Y-65024000D03*
%TD*%
D22*
%TO.C,C4*%
X119174500Y-75184000D03*
X116049500Y-75184000D03*
%TD*%
D26*
%TO.C,REF\u002A\u002A*%
X86868000Y-66548000D03*
%TD*%
D27*
%TO.C,U1*%
X101356000Y-72380000D03*
D28*
X103896000Y-72380000D03*
X106436000Y-72380000D03*
X108976000Y-72380000D03*
X111516000Y-72380000D03*
X114056000Y-72380000D03*
X116596000Y-72380000D03*
X119136000Y-72380000D03*
X121676000Y-72380000D03*
X124216000Y-72380000D03*
X126756000Y-72380000D03*
X129296000Y-72380000D03*
X131836000Y-72380000D03*
X134376000Y-72380000D03*
X134376000Y-64760000D03*
X131836000Y-64760000D03*
X129296000Y-64760000D03*
X126756000Y-64760000D03*
X124216000Y-64760000D03*
X121676000Y-64760000D03*
X119136000Y-64760000D03*
X116596000Y-64760000D03*
X114056000Y-64760000D03*
X111516000Y-64760000D03*
X108976000Y-64760000D03*
X106436000Y-64760000D03*
X103896000Y-64760000D03*
X101356000Y-64760000D03*
%TD*%
D26*
%TO.C,REF\u002A\u002A*%
X87376000Y-146812000D03*
%TD*%
D16*
%TO.C,J1*%
X94224000Y-79756000D03*
D17*
X91684000Y-79756000D03*
X89144000Y-79756000D03*
X86604000Y-79756000D03*
%TD*%
D21*
%TO.C,C1*%
X155337500Y-83500000D03*
X158462500Y-83500000D03*
%TD*%
D29*
%TO.C,Y1*%
X128873500Y-79756000D03*
X116998500Y-79756000D03*
%TD*%
M02*
