M48
; DRILL file {KiCad (6.0.1)} date Wed Apr 26 14:09:38 2023
; FORMAT={-:-/ absolute / inch / decimal}
; #@! TF.CreationDate,2023-04-26T14:09:38-06:00
; #@! TF.GenerationSoftware,Kicad,Pcbnew,(6.0.1)
; #@! TF.FileFunction,Plated,1,2,PTH
FMAT,2
INCH
; #@! TA.AperFunction,Plated,PTH,ViaDrill
T1C0.0157
; #@! TA.AperFunction,Plated,PTH,ComponentDrill
T2C0.0315
; #@! TA.AperFunction,Plated,PTH,ComponentDrill
T3C0.0394
; #@! TA.AperFunction,Plated,PTH,ComponentDrill
T4C0.0394
; #@! TA.AperFunction,Plated,PTH,ComponentDrill
T5C0.0429
; #@! TA.AperFunction,Plated,PTH,ComponentDrill
T6C0.0598
%
G90
G05
T1
X3.3583Y-4.0315
X3.7008Y-2.8701
X3.811Y-2.7913
X3.8268Y-2.6654
X3.9173Y-3.3583
X3.9921Y-3.9409
X4.0709Y-3.3268
X4.4685Y-3.2913
X4.6142Y-3.9252
X4.689Y-2.748
X4.9016Y-3.2835
X5.2638Y-3.9291
X5.3622Y-2.874
X5.3976Y-3.0039
X5.8937Y-3.9291
T2
X3.9904Y-2.5496
X3.9904Y-2.8496
X4.0904Y-2.5496
X4.0904Y-2.8496
X4.1904Y-2.5496
X4.1904Y-2.8496
X4.2904Y-2.5496
X4.2904Y-2.8496
X4.3904Y-2.5496
X4.3904Y-2.8496
X4.4904Y-2.5496
X4.4904Y-2.8496
X4.5904Y-2.5496
X4.5904Y-2.8496
X4.6904Y-2.5496
X4.6904Y-2.8496
X4.7904Y-2.5496
X4.7904Y-2.8496
X4.8904Y-2.5496
X4.8904Y-2.8496
X4.9904Y-2.5496
X4.9904Y-2.8496
X5.0904Y-2.5496
X5.0904Y-2.8496
X5.1904Y-2.5496
X5.1904Y-2.8496
X5.2904Y-2.5496
X5.2904Y-2.8496
T3
X3.4153Y-3.5067
X3.4153Y-3.6839
X3.4153Y-4.1267
X3.4153Y-4.3039
X3.4153Y-5.3694
X3.4153Y-5.5465
X3.4153Y-5.9894
X3.4153Y-6.1665
X3.4165Y-4.748
X3.4165Y-4.9252
X3.6712Y-3.5067
X3.6712Y-3.6839
X3.6712Y-4.1267
X3.6712Y-4.3039
X3.6712Y-5.3694
X3.6712Y-5.5465
X3.6712Y-5.9894
X3.6712Y-6.1665
X3.6724Y-4.748
X3.6724Y-4.9252
X4.0353Y-4.1267
X4.0353Y-4.3039
X4.0353Y-5.3694
X4.0353Y-5.5465
X4.0353Y-5.9894
X4.0353Y-6.1665
X4.0365Y-3.5054
X4.0365Y-3.6825
X4.0365Y-4.7494
X4.0365Y-4.9265
X4.2912Y-4.1267
X4.2912Y-4.3039
X4.2912Y-5.3694
X4.2912Y-5.5465
X4.2912Y-5.9894
X4.2912Y-6.1665
X4.2924Y-3.5054
X4.2924Y-3.6825
X4.2924Y-4.7494
X4.2924Y-4.9265
X4.6565Y-4.748
X4.6565Y-4.9252
X4.6565Y-5.368
X4.6565Y-5.5452
X4.6565Y-5.988
X4.6565Y-6.1652
X4.6576Y-3.5054
X4.6576Y-3.6825
X4.6576Y-4.124
X4.6576Y-4.3012
X4.9124Y-4.748
X4.9124Y-4.9252
X4.9124Y-5.368
X4.9124Y-5.5452
X4.9124Y-5.988
X4.9124Y-6.1652
X4.9135Y-3.5054
X4.9135Y-3.6825
X4.9135Y-4.124
X4.9135Y-4.3012
X5.2765Y-5.988
X5.2765Y-6.1652
X5.2776Y-3.5027
X5.2776Y-3.6798
X5.2776Y-5.3667
X5.2776Y-5.5439
X5.2788Y-4.1227
X5.2788Y-4.2998
X5.2788Y-4.7467
X5.2788Y-4.9239
X5.5324Y-5.988
X5.5324Y-6.1652
X5.5335Y-3.5027
X5.5335Y-3.6798
X5.5335Y-5.3667
X5.5335Y-5.5439
X5.5347Y-4.1227
X5.5347Y-4.2998
X5.5347Y-4.7467
X5.5347Y-4.9239
X5.8965Y-5.988
X5.8965Y-6.1652
X5.8976Y-4.124
X5.8976Y-4.3012
X5.8976Y-5.3667
X5.8976Y-5.5439
X5.8988Y-3.5013
X5.8988Y-3.6785
X5.8988Y-4.7454
X5.8988Y-4.9225
X6.1524Y-5.988
X6.1524Y-6.1652
X6.1535Y-4.124
X6.1535Y-4.3012
X6.1535Y-5.3667
X6.1535Y-5.5439
X6.1547Y-3.5013
X6.1547Y-3.6785
X6.1547Y-4.7454
X6.1547Y-4.9225
T4
X3.4096Y-3.14
X3.5096Y-3.14
X3.6096Y-3.14
X3.7096Y-3.14
X4.0606Y-3.04
X4.1606Y-3.04
X4.2606Y-3.04
X5.4898Y-2.56
X5.4898Y-2.8002
X5.4898Y-2.9002
X5.4898Y-3.0002
X5.4898Y-3.1002
X5.4898Y-3.2002
X5.5898Y-2.56
X5.5898Y-2.8002
X5.5898Y-2.9002
X5.5898Y-3.0002
X5.5898Y-3.1002
X5.5898Y-3.2002
T5
X5.819Y-2.54
X5.819Y-2.74
T6
X6.12Y-2.82
X6.12Y-3.02
T0
M30
