%TF.GenerationSoftware,KiCad,Pcbnew,(6.0.1)*%
%TF.CreationDate,2023-04-26T14:09:52-06:00*%
%TF.ProjectId,Device_Design,44657669-6365-45f4-9465-7369676e2e6b,02*%
%TF.SameCoordinates,Original*%
%TF.FileFunction,Legend,Bot*%
%TF.FilePolarity,Positive*%
%FSLAX46Y46*%
G04 Gerber Fmt 4.6, Leading zero omitted, Abs format (unit mm)*
G04 Created by KiCad (PCBNEW (6.0.1)) date 2023-04-26 14:09:52*
%MOMM*%
%LPD*%
G01*
G04 APERTURE LIST*
%ADD10C,0.150000*%
%ADD11C,0.120000*%
G04 APERTURE END LIST*
D10*
X99457142Y-62442380D02*
X99457142Y-63156666D01*
X99504761Y-63299523D01*
X99600000Y-63394761D01*
X99742857Y-63442380D01*
X99838095Y-63442380D01*
X98838095Y-63442380D02*
X98933333Y-63394761D01*
X98980952Y-63347142D01*
X99028571Y-63251904D01*
X99028571Y-62966190D01*
X98980952Y-62870952D01*
X98933333Y-62823333D01*
X98838095Y-62775714D01*
X98695238Y-62775714D01*
X98600000Y-62823333D01*
X98552380Y-62870952D01*
X98504761Y-62966190D01*
X98504761Y-63251904D01*
X98552380Y-63347142D01*
X98600000Y-63394761D01*
X98695238Y-63442380D01*
X98838095Y-63442380D01*
X98076190Y-63442380D02*
X98076190Y-62442380D01*
X97647619Y-63442380D02*
X97647619Y-62918571D01*
X97695238Y-62823333D01*
X97790476Y-62775714D01*
X97933333Y-62775714D01*
X98028571Y-62823333D01*
X98076190Y-62870952D01*
X96742857Y-63442380D02*
X96742857Y-62918571D01*
X96790476Y-62823333D01*
X96885714Y-62775714D01*
X97076190Y-62775714D01*
X97171428Y-62823333D01*
X96742857Y-63394761D02*
X96838095Y-63442380D01*
X97076190Y-63442380D01*
X97171428Y-63394761D01*
X97219047Y-63299523D01*
X97219047Y-63204285D01*
X97171428Y-63109047D01*
X97076190Y-63061428D01*
X96838095Y-63061428D01*
X96742857Y-63013809D01*
X96266666Y-62775714D02*
X96266666Y-63442380D01*
X96266666Y-62870952D02*
X96219047Y-62823333D01*
X96123809Y-62775714D01*
X95980952Y-62775714D01*
X95885714Y-62823333D01*
X95838095Y-62918571D01*
X95838095Y-63442380D01*
X95361904Y-62775714D02*
X95361904Y-63442380D01*
X95361904Y-62870952D02*
X95314285Y-62823333D01*
X95219047Y-62775714D01*
X95076190Y-62775714D01*
X94980952Y-62823333D01*
X94933333Y-62918571D01*
X94933333Y-63442380D01*
X94028571Y-63442380D02*
X94028571Y-62918571D01*
X94076190Y-62823333D01*
X94171428Y-62775714D01*
X94361904Y-62775714D01*
X94457142Y-62823333D01*
X94028571Y-63394761D02*
X94123809Y-63442380D01*
X94361904Y-63442380D01*
X94457142Y-63394761D01*
X94504761Y-63299523D01*
X94504761Y-63204285D01*
X94457142Y-63109047D01*
X94361904Y-63061428D01*
X94123809Y-63061428D01*
X94028571Y-63013809D01*
X92838095Y-63394761D02*
X92695238Y-63442380D01*
X92457142Y-63442380D01*
X92361904Y-63394761D01*
X92314285Y-63347142D01*
X92266666Y-63251904D01*
X92266666Y-63156666D01*
X92314285Y-63061428D01*
X92361904Y-63013809D01*
X92457142Y-62966190D01*
X92647619Y-62918571D01*
X92742857Y-62870952D01*
X92790476Y-62823333D01*
X92838095Y-62728095D01*
X92838095Y-62632857D01*
X92790476Y-62537619D01*
X92742857Y-62490000D01*
X92647619Y-62442380D01*
X92409523Y-62442380D01*
X92266666Y-62490000D01*
X91838095Y-63442380D02*
X91838095Y-62442380D01*
X91409523Y-63442380D02*
X91409523Y-62918571D01*
X91457142Y-62823333D01*
X91552380Y-62775714D01*
X91695238Y-62775714D01*
X91790476Y-62823333D01*
X91838095Y-62870952D01*
X90504761Y-63442380D02*
X90504761Y-62918571D01*
X90552380Y-62823333D01*
X90647619Y-62775714D01*
X90838095Y-62775714D01*
X90933333Y-62823333D01*
X90504761Y-63394761D02*
X90599999Y-63442380D01*
X90838095Y-63442380D01*
X90933333Y-63394761D01*
X90980952Y-63299523D01*
X90980952Y-63204285D01*
X90933333Y-63109047D01*
X90838095Y-63061428D01*
X90599999Y-63061428D01*
X90504761Y-63013809D01*
X90123809Y-62775714D02*
X89933333Y-63442380D01*
X89742857Y-62966190D01*
X89552380Y-63442380D01*
X89361904Y-62775714D01*
X95933333Y-65052380D02*
X95933333Y-64052380D01*
X95361904Y-65052380D01*
X95361904Y-64052380D01*
X94933333Y-64766666D02*
X94457142Y-64766666D01*
X95028571Y-65052380D02*
X94695238Y-64052380D01*
X94361904Y-65052380D01*
X94028571Y-65052380D02*
X94028571Y-64052380D01*
X93695238Y-64052380D02*
X93123809Y-64052380D01*
X93409523Y-65052380D02*
X93409523Y-64052380D01*
X99028571Y-65662380D02*
X98790476Y-66662380D01*
X98600000Y-65948095D01*
X98409523Y-66662380D01*
X98171428Y-65662380D01*
X97790476Y-66662380D02*
X97790476Y-65995714D01*
X97790476Y-65662380D02*
X97838095Y-65710000D01*
X97790476Y-65757619D01*
X97742857Y-65710000D01*
X97790476Y-65662380D01*
X97790476Y-65757619D01*
X97314285Y-65995714D02*
X97314285Y-66662380D01*
X97314285Y-66090952D02*
X97266666Y-66043333D01*
X97171428Y-65995714D01*
X97028571Y-65995714D01*
X96933333Y-66043333D01*
X96885714Y-66138571D01*
X96885714Y-66662380D01*
X96552380Y-65995714D02*
X96171428Y-65995714D01*
X96409523Y-65662380D02*
X96409523Y-66519523D01*
X96361904Y-66614761D01*
X96266666Y-66662380D01*
X96171428Y-66662380D01*
X95457142Y-66614761D02*
X95552380Y-66662380D01*
X95742857Y-66662380D01*
X95838095Y-66614761D01*
X95885714Y-66519523D01*
X95885714Y-66138571D01*
X95838095Y-66043333D01*
X95742857Y-65995714D01*
X95552380Y-65995714D01*
X95457142Y-66043333D01*
X95409523Y-66138571D01*
X95409523Y-66233809D01*
X95885714Y-66329047D01*
X94980952Y-66662380D02*
X94980952Y-65995714D01*
X94980952Y-66186190D02*
X94933333Y-66090952D01*
X94885714Y-66043333D01*
X94790476Y-65995714D01*
X94695238Y-65995714D01*
X93647619Y-65757619D02*
X93600000Y-65710000D01*
X93504761Y-65662380D01*
X93266666Y-65662380D01*
X93171428Y-65710000D01*
X93123809Y-65757619D01*
X93076190Y-65852857D01*
X93076190Y-65948095D01*
X93123809Y-66090952D01*
X93695238Y-66662380D01*
X93076190Y-66662380D01*
X92457142Y-65662380D02*
X92361904Y-65662380D01*
X92266666Y-65710000D01*
X92219047Y-65757619D01*
X92171428Y-65852857D01*
X92123809Y-66043333D01*
X92123809Y-66281428D01*
X92171428Y-66471904D01*
X92219047Y-66567142D01*
X92266666Y-66614761D01*
X92361904Y-66662380D01*
X92457142Y-66662380D01*
X92552380Y-66614761D01*
X92600000Y-66567142D01*
X92647619Y-66471904D01*
X92695238Y-66281428D01*
X92695238Y-66043333D01*
X92647619Y-65852857D01*
X92600000Y-65757619D01*
X92552380Y-65710000D01*
X92457142Y-65662380D01*
X91742857Y-65757619D02*
X91695238Y-65710000D01*
X91600000Y-65662380D01*
X91361904Y-65662380D01*
X91266666Y-65710000D01*
X91219047Y-65757619D01*
X91171428Y-65852857D01*
X91171428Y-65948095D01*
X91219047Y-66090952D01*
X91790476Y-66662380D01*
X91171428Y-66662380D01*
X90838095Y-65662380D02*
X90219047Y-65662380D01*
X90552380Y-66043333D01*
X90409523Y-66043333D01*
X90314285Y-66090952D01*
X90266666Y-66138571D01*
X90219047Y-66233809D01*
X90219047Y-66471904D01*
X90266666Y-66567142D01*
X90314285Y-66614761D01*
X90409523Y-66662380D01*
X90695238Y-66662380D01*
X90790476Y-66614761D01*
X90838095Y-66567142D01*
D11*
%TO.C,SW27*%
X151156994Y-152126006D02*
G75*
G03*
X151156994Y-152126006I-127000J0D01*
G01*
%TO.C,SW26*%
X151186996Y-136344005D02*
G75*
G03*
X151186996Y-136344005I-127000J0D01*
G01*
%TO.C,SW25*%
X151216998Y-120562004D02*
G75*
G03*
X151216998Y-120562004I-127000J0D01*
G01*
%TO.C,SW24*%
X151186996Y-104780003D02*
G75*
G03*
X151186996Y-104780003I-127000J0D01*
G01*
%TO.C,SW23*%
X151216998Y-88964001D02*
G75*
G03*
X151216998Y-88964001I-127000J0D01*
G01*
%TO.C,SW22*%
X135408994Y-152126006D02*
G75*
G03*
X135408994Y-152126006I-127000J0D01*
G01*
%TO.C,SW21*%
X135438996Y-136344005D02*
G75*
G03*
X135438996Y-136344005I-127000J0D01*
G01*
%TO.C,SW20*%
X135468998Y-120596005D02*
G75*
G03*
X135468998Y-120596005I-127000J0D01*
G01*
%TO.C,SW19*%
X135468998Y-104746002D02*
G75*
G03*
X135468998Y-104746002I-127000J0D01*
G01*
%TO.C,SW18*%
X135438996Y-88998002D02*
G75*
G03*
X135438996Y-88998002I-127000J0D01*
G01*
%TO.C,SW17*%
X119660994Y-152126006D02*
G75*
G03*
X119660994Y-152126006I-127000J0D01*
G01*
%TO.C,SW16*%
X119660994Y-136378006D02*
G75*
G03*
X119660994Y-136378006I-127000J0D01*
G01*
%TO.C,SW15*%
X119660994Y-120630006D02*
G75*
G03*
X119660994Y-120630006I-127000J0D01*
G01*
%TO.C,SW14*%
X119690996Y-104780003D02*
G75*
G03*
X119690996Y-104780003I-127000J0D01*
G01*
%TO.C,SW13*%
X119690996Y-89066004D02*
G75*
G03*
X119690996Y-89066004I-127000J0D01*
G01*
%TO.C,SW12*%
X103882992Y-152160007D02*
G75*
G03*
X103882992Y-152160007I-127000J0D01*
G01*
%TO.C,SW11*%
X103882992Y-136412007D02*
G75*
G03*
X103882992Y-136412007I-127000J0D01*
G01*
%TO.C,SW10*%
X103912994Y-120664007D02*
G75*
G03*
X103912994Y-120664007I-127000J0D01*
G01*
%TO.C,SW9*%
X103882992Y-104848005D02*
G75*
G03*
X103882992Y-104848005I-127000J0D01*
G01*
%TO.C,SW8*%
X103912994Y-89066004D02*
G75*
G03*
X103912994Y-89066004I-127000J0D01*
G01*
%TO.C,SW7*%
X88134992Y-152160007D02*
G75*
G03*
X88134992Y-152160007I-127000J0D01*
G01*
%TO.C,SW6*%
X88134992Y-136412007D02*
G75*
G03*
X88134992Y-136412007I-127000J0D01*
G01*
%TO.C,SW5*%
X88164994Y-120630006D02*
G75*
G03*
X88164994Y-120630006I-127000J0D01*
G01*
%TO.C,SW4*%
X88134992Y-104848005D02*
G75*
G03*
X88134992Y-104848005I-127000J0D01*
G01*
%TO.C,SW3*%
X88134992Y-89100005D02*
G75*
G03*
X88134992Y-89100005I-127000J0D01*
G01*
%TD*%
M02*
