%TF.GenerationSoftware,KiCad,Pcbnew,(6.0.1)*%
%TF.CreationDate,2023-04-26T14:09:52-06:00*%
%TF.ProjectId,Device_Design,44657669-6365-45f4-9465-7369676e2e6b,02*%
%TF.SameCoordinates,Original*%
%TF.FileFunction,Soldermask,Bot*%
%TF.FilePolarity,Negative*%
%FSLAX46Y46*%
G04 Gerber Fmt 4.6, Leading zero omitted, Abs format (unit mm)*
G04 Created by KiCad (PCBNEW (6.0.1)) date 2023-04-26 14:09:52*
%MOMM*%
%LPD*%
G01*
G04 APERTURE LIST*
%ADD10C,1.507998*%
%ADD11R,1.700000X1.700000*%
%ADD12O,1.700000X1.700000*%
%ADD13C,1.724000*%
%ADD14R,3.000000X3.000000*%
%ADD15C,3.000000*%
%ADD16C,3.200000*%
%ADD17R,1.600000X1.600000*%
%ADD18O,1.600000X1.600000*%
G04 APERTURE END LIST*
D10*
%TO.C,SW27*%
X156269996Y-152096006D03*
X149769994Y-152096006D03*
X149769994Y-156596007D03*
X156269996Y-156596007D03*
%TD*%
%TO.C,SW26*%
X156299998Y-136314005D03*
X149799996Y-136314005D03*
X149799996Y-140814006D03*
X156299998Y-140814006D03*
%TD*%
%TO.C,SW25*%
X156330000Y-120532004D03*
X149829998Y-120532004D03*
X149829998Y-125032005D03*
X156330000Y-125032005D03*
%TD*%
%TO.C,SW24*%
X156299998Y-104750003D03*
X149799996Y-104750003D03*
X149799996Y-109250004D03*
X156299998Y-109250004D03*
%TD*%
%TO.C,SW23*%
X156330000Y-88934001D03*
X149829998Y-88934001D03*
X149829998Y-93434002D03*
X156330000Y-93434002D03*
%TD*%
%TO.C,SW22*%
X140521996Y-152096006D03*
X134021994Y-152096006D03*
X134021994Y-156596007D03*
X140521996Y-156596007D03*
%TD*%
%TO.C,SW21*%
X140551998Y-136314005D03*
X134051996Y-136314005D03*
X134051996Y-140814006D03*
X140551998Y-140814006D03*
%TD*%
%TO.C,SW20*%
X140582000Y-120566005D03*
X134081998Y-120566005D03*
X134081998Y-125066006D03*
X140582000Y-125066006D03*
%TD*%
%TO.C,SW19*%
X140582000Y-104716002D03*
X134081998Y-104716002D03*
X134081998Y-109216003D03*
X140582000Y-109216003D03*
%TD*%
%TO.C,SW18*%
X140551998Y-88968002D03*
X134051996Y-88968002D03*
X134051996Y-93468003D03*
X140551998Y-93468003D03*
%TD*%
%TO.C,SW17*%
X124773996Y-152096006D03*
X118273994Y-152096006D03*
X118273994Y-156596007D03*
X124773996Y-156596007D03*
%TD*%
%TO.C,SW16*%
X124773996Y-136348006D03*
X118273994Y-136348006D03*
X118273994Y-140848007D03*
X124773996Y-140848007D03*
%TD*%
%TO.C,SW15*%
X124773996Y-120600006D03*
X118273994Y-120600006D03*
X118273994Y-125100007D03*
X124773996Y-125100007D03*
%TD*%
%TO.C,SW14*%
X124803998Y-104750003D03*
X118303996Y-104750003D03*
X118303996Y-109250004D03*
X124803998Y-109250004D03*
%TD*%
%TO.C,SW13*%
X124803998Y-89036004D03*
X118303996Y-89036004D03*
X118303996Y-93536005D03*
X124803998Y-93536005D03*
%TD*%
%TO.C,SW12*%
X108995994Y-152130007D03*
X102495992Y-152130007D03*
X102495992Y-156630008D03*
X108995994Y-156630008D03*
%TD*%
%TO.C,SW11*%
X108995994Y-136382007D03*
X102495992Y-136382007D03*
X102495992Y-140882008D03*
X108995994Y-140882008D03*
%TD*%
%TO.C,SW10*%
X109025996Y-120634007D03*
X102525994Y-120634007D03*
X102525994Y-125134008D03*
X109025996Y-125134008D03*
%TD*%
%TO.C,SW9*%
X108995994Y-104818005D03*
X102495992Y-104818005D03*
X102495992Y-109318006D03*
X108995994Y-109318006D03*
%TD*%
%TO.C,SW8*%
X109025996Y-89036004D03*
X102525994Y-89036004D03*
X102525994Y-93536005D03*
X109025996Y-93536005D03*
%TD*%
%TO.C,SW7*%
X93247994Y-152130007D03*
X86747992Y-152130007D03*
X86747992Y-156630008D03*
X93247994Y-156630008D03*
%TD*%
%TO.C,SW6*%
X93247994Y-136382007D03*
X86747992Y-136382007D03*
X86747992Y-140882008D03*
X93247994Y-140882008D03*
%TD*%
%TO.C,SW5*%
X93277996Y-120600006D03*
X86777994Y-120600006D03*
X86777994Y-125100007D03*
X93277996Y-125100007D03*
%TD*%
%TO.C,SW4*%
X93247994Y-104818005D03*
X86747992Y-104818005D03*
X86747992Y-109318006D03*
X93247994Y-109318006D03*
%TD*%
%TO.C,SW3*%
X93247994Y-89070005D03*
X86747992Y-89070005D03*
X86747992Y-93570006D03*
X93247994Y-93570006D03*
%TD*%
D11*
%TO.C,J5*%
X103139000Y-77216000D03*
D12*
X105679000Y-77216000D03*
X108219000Y-77216000D03*
%TD*%
D13*
%TO.C,SW1*%
X147803000Y-69596000D03*
X147803000Y-64516000D03*
%TD*%
D11*
%TO.C,J4*%
X139441000Y-65024000D03*
D12*
X141981000Y-65024000D03*
%TD*%
D11*
%TO.C,J3*%
X139441000Y-71125000D03*
D12*
X141981000Y-71125000D03*
X139441000Y-73665000D03*
X141981000Y-73665000D03*
X139441000Y-76205000D03*
X141981000Y-76205000D03*
X139441000Y-78745000D03*
X141981000Y-78745000D03*
X139441000Y-81285000D03*
X141981000Y-81285000D03*
%TD*%
D14*
%TO.C,J2*%
X155448000Y-71628000D03*
D15*
X155448000Y-76708000D03*
%TD*%
D16*
%TO.C,REF\u002A\u002A*%
X156464000Y-146812000D03*
%TD*%
%TO.C,REF\u002A\u002A*%
X155448000Y-65024000D03*
%TD*%
%TO.C,REF\u002A\u002A*%
X86868000Y-66548000D03*
%TD*%
D17*
%TO.C,U1*%
X101356000Y-72380000D03*
D18*
X103896000Y-72380000D03*
X106436000Y-72380000D03*
X108976000Y-72380000D03*
X111516000Y-72380000D03*
X114056000Y-72380000D03*
X116596000Y-72380000D03*
X119136000Y-72380000D03*
X121676000Y-72380000D03*
X124216000Y-72380000D03*
X126756000Y-72380000D03*
X129296000Y-72380000D03*
X131836000Y-72380000D03*
X134376000Y-72380000D03*
X134376000Y-64760000D03*
X131836000Y-64760000D03*
X129296000Y-64760000D03*
X126756000Y-64760000D03*
X124216000Y-64760000D03*
X121676000Y-64760000D03*
X119136000Y-64760000D03*
X116596000Y-64760000D03*
X114056000Y-64760000D03*
X111516000Y-64760000D03*
X108976000Y-64760000D03*
X106436000Y-64760000D03*
X103896000Y-64760000D03*
X101356000Y-64760000D03*
%TD*%
D16*
%TO.C,REF\u002A\u002A*%
X87376000Y-146812000D03*
%TD*%
D11*
%TO.C,J1*%
X94224000Y-79756000D03*
D12*
X91684000Y-79756000D03*
X89144000Y-79756000D03*
X86604000Y-79756000D03*
%TD*%
M02*
