%TF.GenerationSoftware,KiCad,Pcbnew,(6.0.1)*%
%TF.CreationDate,2023-04-26T14:09:52-06:00*%
%TF.ProjectId,Device_Design,44657669-6365-45f4-9465-7369676e2e6b,02*%
%TF.SameCoordinates,Original*%
%TF.FileFunction,Paste,Top*%
%TF.FilePolarity,Positive*%
%FSLAX46Y46*%
G04 Gerber Fmt 4.6, Leading zero omitted, Abs format (unit mm)*
G04 Created by KiCad (PCBNEW (6.0.1)) date 2023-04-26 14:09:52*
%MOMM*%
%LPD*%
G01*
G04 APERTURE LIST*
G04 Aperture macros list*
%AMRoundRect*
0 Rectangle with rounded corners*
0 $1 Rounding radius*
0 $2 $3 $4 $5 $6 $7 $8 $9 X,Y pos of 4 corners*
0 Add a 4 corners polygon primitive as box body*
4,1,4,$2,$3,$4,$5,$6,$7,$8,$9,$2,$3,0*
0 Add four circle primitives for the rounded corners*
1,1,$1+$1,$2,$3*
1,1,$1+$1,$4,$5*
1,1,$1+$1,$6,$7*
1,1,$1+$1,$8,$9*
0 Add four rect primitives between the rounded corners*
20,1,$1+$1,$2,$3,$4,$5,0*
20,1,$1+$1,$4,$5,$6,$7,0*
20,1,$1+$1,$6,$7,$8,$9,0*
20,1,$1+$1,$8,$9,$2,$3,0*%
%AMFreePoly0*
4,1,9,3.862500,-0.866500,0.737500,-0.866500,0.737500,-0.450000,-0.737500,-0.450000,-0.737500,0.450000,0.737500,0.450000,0.737500,0.866500,3.862500,0.866500,3.862500,-0.866500,3.862500,-0.866500,$1*%
G04 Aperture macros list end*
%ADD10RoundRect,0.250000X-0.625000X0.400000X-0.625000X-0.400000X0.625000X-0.400000X0.625000X0.400000X0*%
%ADD11R,0.900000X1.300000*%
%ADD12FreePoly0,270.000000*%
%ADD13RoundRect,0.250001X0.462499X0.624999X-0.462499X0.624999X-0.462499X-0.624999X0.462499X-0.624999X0*%
%ADD14R,1.550000X1.300000*%
%ADD15RoundRect,0.250000X-0.400000X-0.625000X0.400000X-0.625000X0.400000X0.625000X-0.400000X0.625000X0*%
%ADD16RoundRect,0.250000X0.625000X-0.400000X0.625000X0.400000X-0.625000X0.400000X-0.625000X-0.400000X0*%
%ADD17RoundRect,0.250000X-0.412500X-0.650000X0.412500X-0.650000X0.412500X0.650000X-0.412500X0.650000X0*%
%ADD18RoundRect,0.250000X0.412500X0.650000X-0.412500X0.650000X-0.412500X-0.650000X0.412500X-0.650000X0*%
%ADD19RoundRect,0.250000X0.400000X0.625000X-0.400000X0.625000X-0.400000X-0.625000X0.400000X-0.625000X0*%
%ADD20R,7.875000X2.000000*%
G04 APERTURE END LIST*
D10*
%TO.C,R11*%
X147400000Y-94750000D03*
X147400000Y-97850000D03*
%TD*%
%TO.C,R10*%
X131500000Y-98050000D03*
X131500000Y-94950000D03*
%TD*%
%TO.C,R9*%
X115800000Y-95150000D03*
X115800000Y-98250000D03*
%TD*%
%TO.C,R8*%
X99400000Y-94850000D03*
X99400000Y-97950000D03*
%TD*%
%TO.C,R7*%
X88000000Y-97450000D03*
X88000000Y-100550000D03*
%TD*%
D11*
%TO.C,U2*%
X151300000Y-82650000D03*
D12*
X149800000Y-82737500D03*
D11*
X148300000Y-82650000D03*
%TD*%
D13*
%TO.C,D1*%
X148987500Y-77800000D03*
X146012500Y-77800000D03*
%TD*%
D14*
%TO.C,SW2*%
X98468000Y-75910000D03*
X90508000Y-75910000D03*
X90508000Y-71410000D03*
X98468000Y-71410000D03*
%TD*%
D15*
%TO.C,R2*%
X83850000Y-85000000D03*
X86950000Y-85000000D03*
%TD*%
D16*
%TO.C,R6*%
X101500000Y-83650000D03*
X101500000Y-80550000D03*
%TD*%
D17*
%TO.C,C6*%
X117065500Y-62484000D03*
X120190500Y-62484000D03*
%TD*%
D18*
%TO.C,C5*%
X143962500Y-85300000D03*
X140837500Y-85300000D03*
%TD*%
D19*
%TO.C,R4*%
X96350000Y-85000000D03*
X93250000Y-85000000D03*
%TD*%
D18*
%TO.C,C3*%
X129262500Y-84400000D03*
X126137500Y-84400000D03*
%TD*%
D10*
%TO.C,R3*%
X85900000Y-72650000D03*
X85900000Y-75750000D03*
%TD*%
D16*
%TO.C,R5*%
X106800000Y-83850000D03*
X106800000Y-80750000D03*
%TD*%
D18*
%TO.C,C2*%
X114769500Y-84328000D03*
X117894500Y-84328000D03*
%TD*%
D19*
%TO.C,R1*%
X148870000Y-73152000D03*
X145770000Y-73152000D03*
%TD*%
D18*
%TO.C,C4*%
X119174500Y-75184000D03*
X116049500Y-75184000D03*
%TD*%
D17*
%TO.C,C1*%
X155337500Y-83500000D03*
X158462500Y-83500000D03*
%TD*%
D20*
%TO.C,Y1*%
X128873500Y-79756000D03*
X116998500Y-79756000D03*
%TD*%
M02*
